<?xml version="1.0" encoding="utf-8"?>
<!-- Generator: Adobe Illustrator 15.0.0, SVG Export Plug-In . SVG Version: 6.00 Build 0)  -->
<!DOCTYPE svg PUBLIC "-//W3C//DTD SVG 1.0//EN" "http://www.w3.org/TR/2001/REC-SVG-20010904/DTD/svg10.dtd">
<svg version="1.0" xmlns="http://www.w3.org/2000/svg" xmlns:xlink="http://www.w3.org/1999/xlink" x="0px" y="0px" width="1400px"
	 height="980px" viewBox="0 0 1400 980" enable-background="new 0 0 1400 980" xml:space="preserve">
<g id="background">
	<linearGradient id="SVGID_1_" gradientUnits="userSpaceOnUse" x1="700" y1="979.9995" x2="699.9999" y2="1.023182e-12">
		<stop  offset="0" style="stop-color:#FFDD7F"/>
		<stop  offset="1" style="stop-color:#FFF1D0"/>
	</linearGradient>
	<rect fill="url(#SVGID_1_)" width="1400" height="980"/>
</g>
<g id="icons">
	<g>
		<g>
			<path fill="none" stroke="#000000" stroke-width="4" stroke-linecap="round" stroke-linejoin="round" stroke-miterlimit="10" d="
				M213.559,82.39L87.166,208.783c-1.962,1.961-1.962,5.143,0,7.104c1.962,1.963,5.143,1.963,7.104,0L220.664,89.494L213.559,82.39z
				"/>
			<path fill="none" stroke="#000000" stroke-width="4" stroke-linecap="round" stroke-linejoin="round" stroke-miterlimit="10" d="
				M227.768,96.599L101.375,222.992c-1.962,1.961-5.143,1.961-7.104,0c-1.961-1.962-1.962-5.143,0-7.105L220.664,89.494
				L227.768,96.599z"/>
			<path fill="none" stroke="#000000" stroke-width="4" stroke-linecap="round" stroke-linejoin="round" stroke-miterlimit="10" d="
				M227.768,96.599L101.375,222.992c-1.962,1.961-1.961,5.143,0,7.104c1.962,1.963,5.143,1.963,7.105,0.001l126.393-126.394
				L227.768,96.599z"/>
			
				<rect x="212.254" y="83.966" transform="matrix(0.7071 0.7071 -0.7071 0.7071 129.9071 -135.0531)" fill="none" stroke="#000000" stroke-width="4" stroke-linecap="round" stroke-linejoin="round" stroke-miterlimit="10" width="31.446" height="10.638"/>
			<path fill="none" stroke="#000000" stroke-width="4" stroke-linecap="round" stroke-linejoin="round" stroke-miterlimit="10" d="
				M248.606,89.971c1.885-1.885,1.884-4.941-0.001-6.826l-14.487-14.488c-1.885-1.885-4.941-1.885-6.826,0l-6.21,6.21l21.314,21.313
				L248.606,89.971z"/>
			
				<polyline fill="none" stroke="#000000" stroke-width="4" stroke-linecap="round" stroke-linejoin="round" stroke-miterlimit="10" points="
				86.071,210.425 66.763,250.5 106.838,231.191 			"/>
			
				<line fill="none" stroke="#000000" stroke-width="4" stroke-linecap="round" stroke-linejoin="round" stroke-miterlimit="10" x1="71.416" y1="240.844" x2="76.419" y2="245.848"/>
		</g>
		<g>
			<path fill="none" stroke="#000000" stroke-width="4" stroke-linecap="round" stroke-linejoin="round" stroke-miterlimit="10" d="
				M208.566,52.648c1.53-1.53,1.53-4.011,0-5.54l-9.196-9.196c-1.53-1.529-4.01-1.529-5.54,0l-5.04,5.04l14.736,14.735
				L208.566,52.648z"/>
			
				<rect x="117.808" y="23.251" transform="matrix(0.7071 0.7071 -0.7071 0.7071 120.1025 -58.6158)" fill="none" stroke="#000000" stroke-width="4" stroke-linecap="round" stroke-linejoin="round" stroke-miterlimit="10" width="26" height="184.84"/>
			
				<polygon fill="none" stroke="#000000" stroke-width="4" stroke-linecap="round" stroke-linejoin="round" stroke-miterlimit="10" points="
				74.65,190.215 56.265,171.83 37.203,202.562 43.917,209.275 			"/>
			
				<polygon fill="none" stroke="#000000" stroke-width="4" stroke-linecap="round" stroke-linejoin="round" stroke-miterlimit="10" points="
				33.811,213.545 32.934,212.668 37.787,203.146 43.333,208.692 			"/>
			<path fill="none" stroke="#000000" stroke-width="4" stroke-linecap="round" stroke-linejoin="round" stroke-miterlimit="10" d="
				M137.754,85.783c-2.479-2.479-2.479-6.5,0-8.979l34.129-34.129c2.479-2.48,6.5-2.48,8.979-0.001l2.278,2.278"/>
		</g>
		<g>
			<path fill="none" stroke="#000000" stroke-width="4" stroke-linecap="round" stroke-linejoin="round" stroke-miterlimit="10" d="
				M282.847,124.011c1.53-1.53,1.529-4.01,0-5.539l-12.698-12.698c-1.53-1.53-4.01-1.531-5.54-0.001L182.481,187.9l18.238,18.238
				L282.847,124.011z"/>
			
				<rect x="151.685" y="185.007" transform="matrix(0.7071 0.7071 -0.7071 0.7071 207.4443 -48.7759)" fill="none" stroke="#000000" stroke-width="4" stroke-linecap="round" stroke-linejoin="round" stroke-miterlimit="10" width="21.831" height="82.025"/>
			<path fill="none" stroke="#000000" stroke-width="4" stroke-linecap="round" stroke-linejoin="round" stroke-miterlimit="10" d="
				M265.67,128.15c-4.82,4.82-32.95,30.623-34.387,29.187c-1.437-1.437,24.366-29.566,29.187-34.387
				c4.819-4.819,8.139-5.812,9.576-4.376C271.482,120.012,270.489,123.332,265.67,128.15z"/>
			<path fill="none" stroke="#000000" stroke-width="4" stroke-linecap="round" stroke-linejoin="round" stroke-miterlimit="10" d="
				M127.94,249.36c-9.354,9.354-19.357,12.438-19.357,12.438s2.284,13.694-5.599,23.837c10.143-7.883,23.837-5.599,23.837-5.599
				s3.084-10.003,12.438-19.357L127.94,249.36z"/>
			
				<line fill="none" stroke="#000000" stroke-width="4" stroke-linecap="round" stroke-linejoin="round" stroke-miterlimit="10" x1="102.984" y1="285.636" x2="118.292" y2="270.328"/>
			
				<circle fill="none" stroke="#000000" stroke-width="4" stroke-linecap="round" stroke-linejoin="round" stroke-miterlimit="10" cx="119.667" cy="268.953" r="1.945"/>
		</g>
	</g>
	<g>
		<g>
			
				<polyline fill="none" stroke="#000000" stroke-width="4" stroke-linecap="round" stroke-linejoin="round" stroke-miterlimit="10" points="
				838.412,403.458 838.412,440.063 811.807,403.458 811.807,440.063 			"/>
			
				<polyline fill="none" stroke="#000000" stroke-width="4" stroke-linecap="round" stroke-linejoin="round" stroke-miterlimit="10" points="
				880.477,403.458 857.54,403.458 857.54,440.063 880.477,440.063 			"/>
			
				<line fill="none" stroke="#000000" stroke-width="4" stroke-linecap="round" stroke-linejoin="round" stroke-miterlimit="10" x1="857.54" y1="421.76" x2="874.712" y2="421.76"/>
			
				<polyline fill="none" stroke="#000000" stroke-width="4" stroke-linecap="round" stroke-linejoin="round" stroke-miterlimit="10" points="
				935.503,403.458 928.171,440.063 915.367,412.562 902.566,440.063 895.232,403.458 			"/>
			<path fill="none" stroke="#000000" stroke-width="4" stroke-linecap="round" stroke-linejoin="round" stroke-miterlimit="10" d="
				M969.417,403.458h-8.444c-5.831,0-10.559,4.097-10.559,9.151c0,5.054,4.728,9.152,10.559,9.152h0.003
				c5.829,0,10.557,4.097,10.557,9.152c0,5.054-4.728,9.151-10.557,9.151h-10.562"/>
		</g>
		
			<line fill="none" stroke="#000000" stroke-width="4" stroke-linecap="round" stroke-linejoin="round" stroke-miterlimit="10" x1="816.652" y1="468.698" x2="966.688" y2="468.698"/>
		
			<rect x="880.477" y="500.582" fill="none" stroke="#000000" stroke-width="4" stroke-linecap="round" stroke-linejoin="round" stroke-miterlimit="10" width="91.056" height="69.676"/>
		
			<line fill="none" stroke="#000000" stroke-width="4" stroke-linecap="round" stroke-linejoin="round" stroke-miterlimit="10" x1="857.54" y1="500.582" x2="811.807" y2="500.582"/>
		
			<line fill="none" stroke="#000000" stroke-width="4" stroke-linecap="round" stroke-linejoin="round" stroke-miterlimit="10" x1="857.54" y1="567.895" x2="811.807" y2="567.895"/>
		
			<line fill="none" stroke="#000000" stroke-width="4" stroke-linecap="round" stroke-linejoin="round" stroke-miterlimit="10" x1="857.54" y1="545.458" x2="811.807" y2="545.458"/>
		
			<line fill="none" stroke="#000000" stroke-width="4" stroke-linecap="round" stroke-linejoin="round" stroke-miterlimit="10" x1="857.54" y1="523.02" x2="811.807" y2="523.02"/>
		<path fill="none" stroke="#000000" stroke-width="4" stroke-linecap="round" stroke-linejoin="round" stroke-miterlimit="10" d="
			M994.6,557.967c0,17.875-14.491,32.366-32.367,32.366H756.374c17.874,0,32.366-14.491,32.366-32.366V374.782H994.6v183.184
			V557.967z"/>
		<path fill="none" stroke="#000000" stroke-width="4" stroke-linecap="round" stroke-linejoin="round" stroke-miterlimit="10" d="
			M768.882,395.681h-25.018v162.288c0,6.908,5.601,12.507,12.51,12.507s12.508-5.6,12.508-12.507V384.03h19.858"/>
		<path fill="none" stroke="#000000" stroke-width="4" stroke-linecap="round" stroke-linejoin="round" stroke-miterlimit="10" d="
			M756.374,590.333c-17.874,0-32.367-14.491-32.367-32.366v-153.04h19.857"/>
	</g>
	<g>
		<g>
			
				<line fill="none" stroke="#000000" stroke-width="4" stroke-linecap="round" stroke-linejoin="round" stroke-miterlimit="10" x1="167.641" y1="580.273" x2="238.141" y2="580.273"/>
			<path fill="none" stroke="#000000" stroke-width="4" stroke-linecap="round" stroke-linejoin="round" stroke-miterlimit="10" d="
				M72.081,555.213V379.29c0-13.839,11.221-25.06,25.06-25.06h141.001v175.924H97.14C83.301,530.154,72.081,541.374,72.081,555.213
				c0,13.841,11.221,25.061,25.06,25.061h20.435"/>
			
				<line fill="none" stroke="#000000" stroke-width="4" stroke-linecap="round" stroke-linejoin="round" stroke-miterlimit="10" x1="97.14" y1="563.56" x2="238.141" y2="563.56"/>
			
				<line fill="none" stroke="#000000" stroke-width="4" stroke-linecap="round" stroke-linejoin="round" stroke-miterlimit="10" x1="97.14" y1="546.843" x2="238.141" y2="546.843"/>
		</g>
		
			<polygon fill="none" stroke="#000000" stroke-width="4" stroke-linecap="round" stroke-linejoin="round" stroke-miterlimit="10" points="
			167.641,610.885 142.608,598.306 117.575,610.885 117.575,563.56 167.641,563.56 		"/>
	</g>
	<g>
		<path fill="none" stroke="#000000" stroke-width="4" stroke-linecap="round" stroke-linejoin="round" stroke-miterlimit="10" d="
			M104.667,482.558c5.046,0,9.137,4.091,9.137,9.137c0,5.047-4.091,9.138-9.137,9.138H91.002v-36.55h12.665
			c5.046,0,9.137,4.091,9.137,9.137c0,5.047-4.091,9.138-9.137,9.138"/>
		
			<line fill="none" stroke="#000000" stroke-width="4" stroke-linecap="round" stroke-linejoin="round" stroke-miterlimit="10" x1="202.587" y1="500.833" x2="202.587" y2="464.283"/>
		
			<line fill="none" stroke="#000000" stroke-width="4" stroke-linecap="round" stroke-linejoin="round" stroke-miterlimit="10" x1="104.667" y1="482.558" x2="91.002" y2="482.558"/>
		<path fill="none" stroke="#000000" stroke-width="4" stroke-linecap="round" stroke-linejoin="round" stroke-miterlimit="10" d="
			M151.899,482.558c0,12.76-6.447,18.275-14.401,18.275c-7.954,0-14.402-5.515-14.402-18.275s6.448-18.275,14.402-18.275
			C145.453,464.283,151.899,469.798,151.899,482.558z"/>
		<path fill="none" stroke="#000000" stroke-width="4" stroke-linecap="round" stroke-linejoin="round" stroke-miterlimit="10" d="
			M190.397,482.558c0,12.76-6.447,18.275-14.401,18.275c-7.954,0-14.402-5.515-14.402-18.275s6.448-18.275,14.402-18.275
			C183.951,464.283,190.397,469.798,190.397,482.558z"/>
		
			<line fill="none" stroke="#000000" stroke-width="4" stroke-linecap="round" stroke-linejoin="round" stroke-miterlimit="10" x1="223.219" y1="464.283" x2="202.587" y2="489.801"/>
		
			<line fill="none" stroke="#000000" stroke-width="4" stroke-linecap="round" stroke-linejoin="round" stroke-miterlimit="10" x1="210.676" y1="479.796" x2="222.585" y2="500.833"/>
	</g>
	<g>
		<g>
			<g>
				<g>
					
						<rect x="404.944" y="358.687" fill="none" stroke="#000000" stroke-width="4" stroke-linecap="round" stroke-linejoin="round" stroke-miterlimit="10" width="177.343" height="247.742"/>
					
						<rect x="414.082" y="372.396" fill="none" stroke="#000000" stroke-width="4" stroke-linecap="round" stroke-linejoin="round" stroke-miterlimit="10" width="159.066" height="210.183"/>
					
						<line fill="none" stroke="#000000" stroke-width="4" stroke-linecap="round" stroke-linejoin="round" stroke-miterlimit="10" x1="480.613" y1="365.867" x2="493.998" y2="365.867"/>
				</g>
				
					<circle fill="none" stroke="#000000" stroke-width="4" stroke-linecap="round" stroke-linejoin="round" stroke-miterlimit="10" cx="493.616" cy="593.997" r="5.322"/>
			</g>
			
				<polyline fill="none" stroke="#000000" stroke-width="4" stroke-linecap="round" stroke-linejoin="round" stroke-miterlimit="10" points="
				532.17,382.619 424.304,382.619 424.304,572.356 562.927,572.356 562.927,413.373 			"/>
			
				<polygon fill="none" stroke="#000000" stroke-width="4" stroke-linecap="round" stroke-linejoin="round" stroke-miterlimit="10" points="
				532.17,413.373 562.927,413.373 532.17,382.619 			"/>
			
				<line fill="none" stroke="#000000" stroke-width="4" stroke-linecap="round" stroke-linejoin="round" stroke-miterlimit="10" x1="443.025" y1="487.488" x2="544.208" y2="487.488"/>
			
				<line fill="none" stroke="#000000" stroke-width="4" stroke-linecap="round" stroke-linejoin="round" stroke-miterlimit="10" x1="443.025" y1="505.618" x2="544.208" y2="505.618"/>
			
				<line fill="none" stroke="#000000" stroke-width="4" stroke-linecap="round" stroke-linejoin="round" stroke-miterlimit="10" x1="443.025" y1="523.748" x2="544.208" y2="523.748"/>
			
				<line fill="none" stroke="#000000" stroke-width="4" stroke-linecap="round" stroke-linejoin="round" stroke-miterlimit="10" x1="443.025" y1="541.881" x2="544.208" y2="541.881"/>
		</g>
		<g>
			
				<polyline fill="none" stroke="#000000" stroke-width="4" stroke-linecap="round" stroke-linejoin="round" stroke-miterlimit="10" points="
				455.396,438.634 442.435,438.634 442.435,459.318 455.396,459.318 			"/>
			
				<line fill="none" stroke="#000000" stroke-width="4" stroke-linecap="round" stroke-linejoin="round" stroke-miterlimit="10" x1="442.435" y1="448.976" x2="452.138" y2="448.976"/>
			<g>
				
					<path fill="none" stroke="#000000" stroke-width="4" stroke-linecap="round" stroke-linejoin="round" stroke-miterlimit="10" d="
					M479.197,448.244c3.058,0,5.538,2.479,5.538,5.537c0,3.059-2.479,5.538-5.538,5.538h-8.281v-22.149h7.675
					c3.058,0,5.538,2.479,5.538,5.538c0,3.058-2.48,5.537-5.538,5.537"/>
				
					<line fill="none" stroke="#000000" stroke-width="4" stroke-linecap="round" stroke-linejoin="round" stroke-miterlimit="10" x1="536.114" y1="459.318" x2="536.114" y2="437.169"/>
				
					<line fill="none" stroke="#000000" stroke-width="4" stroke-linecap="round" stroke-linejoin="round" stroke-miterlimit="10" x1="479.197" y1="448.244" x2="470.916" y2="448.244"/>
				
					<path fill="none" stroke="#000000" stroke-width="4" stroke-linecap="round" stroke-linejoin="round" stroke-miterlimit="10" d="
					M507.82,448.244c0,7.733-3.907,11.075-8.727,11.075c-4.82,0-8.728-3.342-8.728-11.075c0-7.732,3.908-11.075,8.728-11.075
					C503.913,437.169,507.82,440.512,507.82,448.244z"/>
				
					<path fill="none" stroke="#000000" stroke-width="4" stroke-linecap="round" stroke-linejoin="round" stroke-miterlimit="10" d="
					M529.938,448.244c0,7.733-3.907,11.075-8.728,11.075c-4.819,0-8.727-3.342-8.727-11.075c0-7.732,3.908-11.075,8.727-11.075
					C526.032,437.169,529.938,440.512,529.938,448.244z"/>
				
					<line fill="none" stroke="#000000" stroke-width="4" stroke-linecap="round" stroke-linejoin="round" stroke-miterlimit="10" x1="548.617" y1="437.169" x2="536.114" y2="452.633"/>
				
					<line fill="none" stroke="#000000" stroke-width="4" stroke-linecap="round" stroke-linejoin="round" stroke-miterlimit="10" x1="541.015" y1="446.57" x2="548.232" y2="459.318"/>
			</g>
		</g>
	</g>
	<g>
		
			<rect x="1159.834" y="382.178" fill="none" stroke="#000000" stroke-width="4" stroke-linecap="round" stroke-linejoin="round" stroke-miterlimit="10" width="141.637" height="200.761"/>
		<path fill="none" stroke="#000000" stroke-width="4" stroke-linecap="round" stroke-linejoin="round" stroke-miterlimit="10" d="
			M1159.834,382.177c0-13.154-10.664-23.818-23.819-23.818c-13.154,0-23.818,10.664-23.818,23.818v200.761
			c0-13.154,10.664-23.818,23.818-23.818c13.155,0,23.819,10.664,23.819,23.818"/>
		<path fill="none" stroke="#000000" stroke-width="4" stroke-linecap="round" stroke-linejoin="round" stroke-miterlimit="10" d="
			M1112.197,582.938c0,13.155,10.664,23.819,23.818,23.819h114.436v-23.819"/>
		<g>
			
				<polyline fill="none" stroke="#000000" stroke-width="4" stroke-linecap="round" stroke-linejoin="round" stroke-miterlimit="10" points="
				1172.858,443.056 1176.695,408.924 1190.633,434.566 1204.569,408.924 1208.407,443.056 			"/>
			<g>
				
					<polyline fill="none" stroke="#000000" stroke-width="4" stroke-linecap="round" stroke-linejoin="round" stroke-miterlimit="10" points="
					1250.062,443.056 1234.528,408.924 1218.993,443.056 				"/>
				
					<line fill="none" stroke="#000000" stroke-width="4" stroke-linecap="round" stroke-linejoin="round" stroke-miterlimit="10" x1="1224.154" y1="431.717" x2="1244.902" y2="431.717"/>
			</g>
			<g>
				
					<path fill="none" stroke="#000000" stroke-width="4" stroke-linecap="round" stroke-linejoin="round" stroke-miterlimit="10" d="
					M1273.381,425.99h15.065c0,12.091-5.641,17.065-15.065,17.065c-9.425,0-15.066-7.642-15.066-17.065
					c0-9.426,5.641-17.066,15.066-17.066h10.814"/>
			</g>
		</g>
		
			<line fill="none" stroke="#000000" stroke-width="4" stroke-linecap="round" stroke-linejoin="round" stroke-miterlimit="10" x1="1180.061" y1="472.518" x2="1281.244" y2="472.518"/>
		
			<line fill="none" stroke="#000000" stroke-width="4" stroke-linecap="round" stroke-linejoin="round" stroke-miterlimit="10" x1="1180.061" y1="490.647" x2="1281.244" y2="490.647"/>
		
			<line fill="none" stroke="#000000" stroke-width="4" stroke-linecap="round" stroke-linejoin="round" stroke-miterlimit="10" x1="1180.061" y1="508.777" x2="1281.244" y2="508.777"/>
		
			<line fill="none" stroke="#000000" stroke-width="4" stroke-linecap="round" stroke-linejoin="round" stroke-miterlimit="10" x1="1180.061" y1="526.91" x2="1281.244" y2="526.91"/>
	</g>
	<g>
		<g>
			
				<rect x="1087.501" y="75.777" fill="none" stroke="#000000" stroke-width="4" stroke-linecap="round" stroke-linejoin="round" stroke-miterlimit="10" width="238.666" height="170.846"/>
			
				<rect x="1100.708" y="84.581" fill="none" stroke="#000000" stroke-width="4" stroke-linecap="round" stroke-linejoin="round" stroke-miterlimit="10" width="202.483" height="153.239"/>
			
				<line fill="none" stroke="#000000" stroke-width="4" stroke-linecap="round" stroke-linejoin="round" stroke-miterlimit="10" x1="1094.418" y1="173.726" x2="1094.418" y2="160.832"/>
			
				<circle fill="none" stroke="#000000" stroke-width="4" stroke-linecap="round" stroke-linejoin="round" stroke-miterlimit="10" cx="1314.19" cy="161.2" r="5.127"/>
			
				<line fill="none" stroke="#000000" stroke-width="4" stroke-linecap="round" stroke-linejoin="round" stroke-miterlimit="10" x1="1114.88" y1="106.231" x2="1290.122" y2="106.231"/>
			
				<line fill="none" stroke="#000000" stroke-width="4" stroke-linecap="round" stroke-linejoin="round" stroke-miterlimit="10" x1="1114.88" y1="123.698" x2="1290.122" y2="123.698"/>
			
				<line fill="none" stroke="#000000" stroke-width="4" stroke-linecap="round" stroke-linejoin="round" stroke-miterlimit="10" x1="1114.88" y1="141.163" x2="1290.122" y2="141.163"/>
			
				<line fill="none" stroke="#000000" stroke-width="4" stroke-linecap="round" stroke-linejoin="round" stroke-miterlimit="10" x1="1114.88" y1="158.632" x2="1290.122" y2="158.632"/>
		</g>
		
			<line fill="none" stroke="#000000" stroke-width="4" stroke-linecap="round" stroke-linejoin="round" stroke-miterlimit="10" x1="1100.708" y1="177.579" x2="1303.191" y2="177.579"/>
		<g>
			
				<polyline fill="none" stroke="#000000" stroke-width="4" stroke-linecap="round" stroke-linejoin="round" stroke-miterlimit="10" points="
				1122.222,185.042 1122.222,195.346 1107.101,195.346 			"/>
			
				<polyline fill="none" stroke="#000000" stroke-width="4" stroke-linecap="round" stroke-linejoin="round" stroke-miterlimit="10" points="
				1122.222,202.134 1122.222,212.438 1107.101,212.438 			"/>
			
				<polyline fill="none" stroke="#000000" stroke-width="4" stroke-linecap="round" stroke-linejoin="round" stroke-miterlimit="10" points="
				1122.222,219.226 1122.222,229.529 1107.101,229.529 			"/>
		</g>
		<g>
			
				<polyline fill="none" stroke="#000000" stroke-width="4" stroke-linecap="round" stroke-linejoin="round" stroke-miterlimit="10" points="
				1143.942,185.042 1143.942,195.346 1128.822,195.346 			"/>
			
				<polyline fill="none" stroke="#000000" stroke-width="4" stroke-linecap="round" stroke-linejoin="round" stroke-miterlimit="10" points="
				1143.942,202.134 1143.942,212.438 1128.822,212.438 			"/>
			
				<polyline fill="none" stroke="#000000" stroke-width="4" stroke-linecap="round" stroke-linejoin="round" stroke-miterlimit="10" points="
				1143.942,219.226 1143.942,229.529 1128.822,229.529 			"/>
		</g>
		<g>
			
				<polyline fill="none" stroke="#000000" stroke-width="4" stroke-linecap="round" stroke-linejoin="round" stroke-miterlimit="10" points="
				1165.663,185.042 1165.663,195.346 1150.543,195.346 			"/>
			
				<polyline fill="none" stroke="#000000" stroke-width="4" stroke-linecap="round" stroke-linejoin="round" stroke-miterlimit="10" points="
				1165.663,202.134 1165.663,212.438 1150.543,212.438 			"/>
			
				<polyline fill="none" stroke="#000000" stroke-width="4" stroke-linecap="round" stroke-linejoin="round" stroke-miterlimit="10" points="
				1165.663,219.226 1165.663,229.529 1150.543,229.529 			"/>
		</g>
		<g>
			
				<polyline fill="none" stroke="#000000" stroke-width="4" stroke-linecap="round" stroke-linejoin="round" stroke-miterlimit="10" points="
				1187.385,185.042 1187.385,195.346 1172.264,195.346 			"/>
			
				<polyline fill="none" stroke="#000000" stroke-width="4" stroke-linecap="round" stroke-linejoin="round" stroke-miterlimit="10" points="
				1187.385,202.134 1187.385,212.438 1172.264,212.438 			"/>
			
				<polyline fill="none" stroke="#000000" stroke-width="4" stroke-linecap="round" stroke-linejoin="round" stroke-miterlimit="10" points="
				1187.385,219.226 1187.385,229.529 1172.264,229.529 			"/>
		</g>
		<g>
			
				<polyline fill="none" stroke="#000000" stroke-width="4" stroke-linecap="round" stroke-linejoin="round" stroke-miterlimit="10" points="
				1209.105,185.042 1209.105,195.346 1193.984,195.346 			"/>
			
				<polyline fill="none" stroke="#000000" stroke-width="4" stroke-linecap="round" stroke-linejoin="round" stroke-miterlimit="10" points="
				1209.105,202.134 1209.105,212.438 1193.984,212.438 			"/>
			
				<polyline fill="none" stroke="#000000" stroke-width="4" stroke-linecap="round" stroke-linejoin="round" stroke-miterlimit="10" points="
				1209.105,219.226 1209.105,229.529 1193.984,229.529 			"/>
		</g>
		<g>
			
				<polyline fill="none" stroke="#000000" stroke-width="4" stroke-linecap="round" stroke-linejoin="round" stroke-miterlimit="10" points="
				1230.826,185.042 1230.826,195.346 1215.705,195.346 			"/>
			
				<polyline fill="none" stroke="#000000" stroke-width="4" stroke-linecap="round" stroke-linejoin="round" stroke-miterlimit="10" points="
				1230.826,202.134 1230.826,212.438 1215.705,212.438 			"/>
			
				<polyline fill="none" stroke="#000000" stroke-width="4" stroke-linecap="round" stroke-linejoin="round" stroke-miterlimit="10" points="
				1230.826,219.226 1230.826,229.529 1215.705,229.529 			"/>
		</g>
		<g>
			
				<polyline fill="none" stroke="#000000" stroke-width="4" stroke-linecap="round" stroke-linejoin="round" stroke-miterlimit="10" points="
				1252.547,185.042 1252.547,195.346 1237.426,195.346 			"/>
			
				<polyline fill="none" stroke="#000000" stroke-width="4" stroke-linecap="round" stroke-linejoin="round" stroke-miterlimit="10" points="
				1252.547,202.134 1252.547,212.438 1237.426,212.438 			"/>
			
				<polyline fill="none" stroke="#000000" stroke-width="4" stroke-linecap="round" stroke-linejoin="round" stroke-miterlimit="10" points="
				1252.547,219.226 1252.547,229.529 1237.426,229.529 			"/>
		</g>
		<g>
			
				<polyline fill="none" stroke="#000000" stroke-width="4" stroke-linecap="round" stroke-linejoin="round" stroke-miterlimit="10" points="
				1274.268,185.042 1274.268,195.346 1259.147,195.346 			"/>
			
				<polyline fill="none" stroke="#000000" stroke-width="4" stroke-linecap="round" stroke-linejoin="round" stroke-miterlimit="10" points="
				1274.268,202.134 1274.268,212.438 1259.147,212.438 			"/>
			
				<polyline fill="none" stroke="#000000" stroke-width="4" stroke-linecap="round" stroke-linejoin="round" stroke-miterlimit="10" points="
				1274.268,219.226 1274.268,229.529 1259.147,229.529 			"/>
		</g>
		<g>
			
				<polyline fill="none" stroke="#000000" stroke-width="4" stroke-linecap="round" stroke-linejoin="round" stroke-miterlimit="10" points="
				1295.988,185.042 1295.988,195.346 1280.868,195.346 			"/>
			
				<polyline fill="none" stroke="#000000" stroke-width="4" stroke-linecap="round" stroke-linejoin="round" stroke-miterlimit="10" points="
				1295.988,202.134 1295.988,212.438 1280.868,212.438 			"/>
			
				<polyline fill="none" stroke="#000000" stroke-width="4" stroke-linecap="round" stroke-linejoin="round" stroke-miterlimit="10" points="
				1295.988,219.226 1295.988,229.529 1280.868,229.529 			"/>
		</g>
	</g>
	<g>
		<g>
			<g>
				
					<line fill="none" stroke="#000000" stroke-width="4" stroke-linecap="round" stroke-linejoin="round" stroke-miterlimit="10" x1="768.077" y1="113.952" x2="949.886" y2="113.952"/>
				
					<line fill="none" stroke="#000000" stroke-width="4" stroke-linecap="round" stroke-linejoin="round" stroke-miterlimit="10" x1="768.077" y1="130.607" x2="949.886" y2="130.607"/>
				
					<line fill="none" stroke="#000000" stroke-width="4" stroke-linecap="round" stroke-linejoin="round" stroke-miterlimit="10" x1="768.077" y1="147.262" x2="949.886" y2="147.262"/>
				
					<line fill="none" stroke="#000000" stroke-width="4" stroke-linecap="round" stroke-linejoin="round" stroke-miterlimit="10" x1="768.077" y1="163.92" x2="949.886" y2="163.92"/>
			</g>
		</g>
		<g>
			<g>
				
					<line fill="none" stroke="#000000" stroke-width="4" stroke-linecap="round" stroke-linejoin="round" stroke-miterlimit="10" x1="768.077" y1="180.576" x2="949.886" y2="180.576"/>
				
					<line fill="none" stroke="#000000" stroke-width="4" stroke-linecap="round" stroke-linejoin="round" stroke-miterlimit="10" x1="768.077" y1="197.231" x2="949.886" y2="197.231"/>
				
					<line fill="none" stroke="#000000" stroke-width="4" stroke-linecap="round" stroke-linejoin="round" stroke-miterlimit="10" x1="768.077" y1="213.889" x2="949.886" y2="213.889"/>
			</g>
		</g>
		<g>
			<g>
				
					<path fill="none" stroke="#000000" stroke-width="4" stroke-linecap="round" stroke-linejoin="round" stroke-miterlimit="10" d="
					M988.113,82.962c0-8.63-7.059-15.69-15.689-15.69H746.182c-8.629,0-15.689,7.06-15.689,15.69v150.364h257.621V82.962z"/>
				
					<path fill="none" stroke="#000000" stroke-width="4" stroke-linecap="round" stroke-linejoin="round" stroke-miterlimit="10" d="
					M862.873,78.923c0,1.974-1.602,3.572-3.568,3.572c-1.977,0-3.571-1.598-3.571-3.572c0-1.974,1.595-3.575,3.571-3.575
					C861.271,75.348,862.873,76.949,862.873,78.923z"/>
				
					<path fill="none" stroke="#000000" stroke-width="4" stroke-linecap="round" stroke-linejoin="round" stroke-miterlimit="10" d="
					M895.566,233.326v1.473c0,4.005-3.247,7.252-7.252,7.252h-58.02c-4.006,0-7.253-3.247-7.253-7.252v-1.473H714.673v6.112
					c0,8.63,7.06,15.69,15.689,15.69h257.885c8.627,0,15.688-7.06,15.688-15.69v-6.112H895.566z"/>
				
					<line fill="none" stroke="#000000" stroke-width="4" stroke-linecap="round" stroke-linejoin="round" stroke-miterlimit="10" x1="730.492" y1="89.494" x2="988.113" y2="89.494"/>
				
					<line fill="none" stroke="#000000" stroke-width="4" stroke-linecap="round" stroke-linejoin="round" stroke-miterlimit="10" x1="730.492" y1="244.227" x2="747.456" y2="244.227"/>
				
					<line fill="none" stroke="#000000" stroke-width="4" stroke-linecap="round" stroke-linejoin="round" stroke-miterlimit="10" x1="759.988" y1="244.227" x2="776.95" y2="244.227"/>
			</g>
		</g>
	</g>
	<g>
		<path fill="none" stroke="#000000" stroke-width="4" stroke-linecap="round" stroke-linejoin="round" stroke-miterlimit="10" d="
			M393.449,173.794v89.419c0,6.083,4.978,11.061,11.062,11.061h178.208c6.084,0,11.062-4.978,11.062-11.061v-89.419"/>
		<path fill="none" stroke="#000000" stroke-width="4" stroke-linecap="round" stroke-linejoin="round" stroke-miterlimit="10" d="
			M579.687,123.625h14.095v-6.46c0-6.084-4.978-11.061-11.062-11.061h-2.071"/>
		<path fill="none" stroke="#000000" stroke-width="4" stroke-linecap="round" stroke-linejoin="round" stroke-miterlimit="10" d="
			M406.582,106.104h-2.071c-6.084,0-11.062,4.977-11.062,11.061v6.46h14.103"/>
		
			<polyline fill="none" stroke="#000000" stroke-width="4" stroke-linecap="round" stroke-linejoin="round" stroke-miterlimit="10" points="
			534.953,173.794 593.781,173.794 593.781,123.625 579.687,123.625 		"/>
		
			<polyline fill="none" stroke="#000000" stroke-width="4" stroke-linecap="round" stroke-linejoin="round" stroke-miterlimit="10" points="
			407.552,123.625 393.449,123.625 393.449,173.794 452.283,173.794 		"/>
		
			<polyline fill="none" stroke="#000000" stroke-width="4" stroke-linecap="round" stroke-linejoin="round" stroke-miterlimit="10" points="
			579.687,123.625 593.781,123.625 593.781,148.709 393.449,148.709 393.449,123.625 407.552,123.625 		"/>
		<g>
			<g>
				
					<rect x="593.781" y="127.752" fill="none" stroke="#000000" stroke-width="4" stroke-linecap="round" stroke-linejoin="round" stroke-miterlimit="10" width="8.814" height="16.828"/>
				
					<rect x="602.595" y="121.204" fill="none" stroke="#000000" stroke-width="4" stroke-linecap="round" stroke-linejoin="round" stroke-miterlimit="10" width="13.111" height="29.927"/>
			</g>
			<g>
				
					<rect x="384.635" y="127.754" fill="none" stroke="#000000" stroke-width="4" stroke-linecap="round" stroke-linejoin="round" stroke-miterlimit="10" width="8.814" height="16.828"/>
				
					<rect x="371.524" y="121.204" fill="none" stroke="#000000" stroke-width="4" stroke-linecap="round" stroke-linejoin="round" stroke-miterlimit="10" width="13.111" height="29.927"/>
			</g>
		</g>
		
			<polygon fill="none" stroke="#000000" stroke-width="4" stroke-linecap="round" stroke-linejoin="round" stroke-miterlimit="10" points="
			583.834,48.125 403.398,48.125 408.929,148.709 578.304,148.709 		"/>
		<path fill="none" stroke="#000000" stroke-width="4" stroke-linecap="round" stroke-linejoin="round" stroke-miterlimit="10" d="
			M541.086,158.388c0,17.309-21.253,31.341-47.47,31.341c-26.218,0-47.472-14.032-47.472-31.341v-9.679h94.941V158.388z"/>
		
			<line fill="none" stroke="#000000" stroke-width="4" stroke-linecap="round" stroke-linejoin="round" stroke-miterlimit="10" x1="393.449" y1="195.378" x2="593.781" y2="195.378"/>
		
			<line fill="none" stroke="#000000" stroke-width="4" stroke-linecap="round" stroke-linejoin="round" stroke-miterlimit="10" x1="421.629" y1="81.282" x2="566.009" y2="81.282"/>
		
			<line fill="none" stroke="#000000" stroke-width="4" stroke-linecap="round" stroke-linejoin="round" stroke-miterlimit="10" x1="421.629" y1="100.437" x2="566.009" y2="100.437"/>
		
			<line fill="none" stroke="#000000" stroke-width="4" stroke-linecap="round" stroke-linejoin="round" stroke-miterlimit="10" x1="421.629" y1="119.591" x2="566.009" y2="119.591"/>
		
			<line fill="none" stroke="#000000" stroke-width="4" stroke-linecap="round" stroke-linejoin="round" stroke-miterlimit="10" x1="421.629" y1="138.747" x2="566.009" y2="138.747"/>
		
			<circle fill="none" stroke="#000000" stroke-width="4" stroke-linecap="round" stroke-linejoin="round" stroke-miterlimit="10" cx="411.465" cy="212.662" r="8.067"/>
		
			<circle fill="none" stroke="#000000" stroke-width="4" stroke-linecap="round" stroke-linejoin="round" stroke-miterlimit="10" cx="438.551" cy="212.662" r="8.066"/>
		
			<circle fill="none" stroke="#000000" stroke-width="4" stroke-linecap="round" stroke-linejoin="round" stroke-miterlimit="10" cx="465.637" cy="212.662" r="8.066"/>
		
			<circle fill="none" stroke="#000000" stroke-width="4" stroke-linecap="round" stroke-linejoin="round" stroke-miterlimit="10" cx="492.723" cy="212.662" r="8.066"/>
		
			<circle fill="none" stroke="#000000" stroke-width="4" stroke-linecap="round" stroke-linejoin="round" stroke-miterlimit="10" cx="519.809" cy="212.662" r="8.066"/>
		
			<circle fill="none" stroke="#000000" stroke-width="4" stroke-linecap="round" stroke-linejoin="round" stroke-miterlimit="10" cx="546.895" cy="212.662" r="8.066"/>
		
			<circle fill="none" stroke="#000000" stroke-width="4" stroke-linecap="round" stroke-linejoin="round" stroke-miterlimit="10" cx="573.981" cy="212.662" r="8.066"/>
		
			<circle fill="none" stroke="#000000" stroke-width="4" stroke-linecap="round" stroke-linejoin="round" stroke-miterlimit="10" cx="411.465" cy="256.832" r="8.067"/>
		
			<circle fill="none" stroke="#000000" stroke-width="4" stroke-linecap="round" stroke-linejoin="round" stroke-miterlimit="10" cx="438.551" cy="256.832" r="8.066"/>
		
			<circle fill="none" stroke="#000000" stroke-width="4" stroke-linecap="round" stroke-linejoin="round" stroke-miterlimit="10" cx="465.637" cy="256.832" r="8.066"/>
		
			<circle fill="none" stroke="#000000" stroke-width="4" stroke-linecap="round" stroke-linejoin="round" stroke-miterlimit="10" cx="492.723" cy="256.832" r="8.066"/>
		
			<circle fill="none" stroke="#000000" stroke-width="4" stroke-linecap="round" stroke-linejoin="round" stroke-miterlimit="10" cx="519.809" cy="256.832" r="8.066"/>
		
			<circle fill="none" stroke="#000000" stroke-width="4" stroke-linecap="round" stroke-linejoin="round" stroke-miterlimit="10" cx="546.895" cy="256.832" r="8.066"/>
		
			<circle fill="none" stroke="#000000" stroke-width="4" stroke-linecap="round" stroke-linejoin="round" stroke-miterlimit="10" cx="573.981" cy="256.832" r="8.066"/>
		
			<circle fill="none" stroke="#000000" stroke-width="4" stroke-linecap="round" stroke-linejoin="round" stroke-miterlimit="10" cx="425.008" cy="234.93" r="8.066"/>
		
			<circle fill="none" stroke="#000000" stroke-width="4" stroke-linecap="round" stroke-linejoin="round" stroke-miterlimit="10" cx="452.094" cy="234.93" r="8.066"/>
		
			<circle fill="none" stroke="#000000" stroke-width="4" stroke-linecap="round" stroke-linejoin="round" stroke-miterlimit="10" cx="479.18" cy="234.93" r="8.066"/>
		
			<circle fill="none" stroke="#000000" stroke-width="4" stroke-linecap="round" stroke-linejoin="round" stroke-miterlimit="10" cx="506.266" cy="234.93" r="8.067"/>
		
			<circle fill="none" stroke="#000000" stroke-width="4" stroke-linecap="round" stroke-linejoin="round" stroke-miterlimit="10" cx="533.352" cy="234.93" r="8.066"/>
		
			<circle fill="none" stroke="#000000" stroke-width="4" stroke-linecap="round" stroke-linejoin="round" stroke-miterlimit="10" cx="560.438" cy="234.93" r="8.067"/>
	</g>
	<g>
		<path fill="none" stroke="#000000" stroke-width="4" stroke-linecap="round" stroke-linejoin="round" stroke-miterlimit="10" d="
			M150.04,827.732c4.452-44.568,20.988-111.315,53.739-144.065"/>
		<path fill="none" stroke="#000000" stroke-width="4" stroke-linecap="round" stroke-linejoin="round" stroke-miterlimit="10" d="
			M206.314,715.364h13.434c18.917-22.884,9.734-40.741,6.218-58.324c-74.808,4.438-88.754,118.549-72.821,152.168
			c16.111-32.042,34.703-60.828,59.327-86.003L206.314,715.364z"/>
		<g>
			<path fill="none" stroke="#000000" stroke-width="4" stroke-linecap="round" stroke-linejoin="round" stroke-miterlimit="10" d="
				M188.192,921.083c0,4.727-3.832,8.558-8.559,8.558h-61.704c-4.727,0-8.558-3.831-8.558-8.558"/>
			<path fill="none" stroke="#000000" stroke-width="4" stroke-linecap="round" stroke-linejoin="round" stroke-miterlimit="10" d="
				M184.153,856.262h-12.268v-12.518h-46.208v12.518h-12.266c-4.255,0-7.738,3.482-7.738,7.738v49.819
				c0,4.256,3.483,7.738,7.738,7.738h70.742c4.256,0,7.738-3.482,7.738-7.738V864C191.891,859.744,188.409,856.262,184.153,856.262z
				"/>
			
				<rect x="129.625" y="868.623" fill="none" stroke="#000000" stroke-width="4" stroke-linecap="round" stroke-linejoin="round" stroke-miterlimit="10" width="62.266" height="38.988"/>
			
				<rect x="117.446" y="827.733" fill="none" stroke="#000000" stroke-width="4" stroke-linecap="round" stroke-linejoin="round" stroke-miterlimit="10" width="62.674" height="16.011"/>
		</g>
	</g>
	<g>
		<g>
			<path fill="none" stroke="#000000" stroke-width="4" stroke-linecap="round" stroke-linejoin="round" stroke-miterlimit="10" d="
				M405.978,746.357c0,4.452-0.201,8.057-15.543,8.057c-15.348,0-15.545-3.604-15.545-8.057c0-4.453,0.197-8.057,15.545-8.057
				C405.777,738.301,405.978,741.905,405.978,746.357z"/>
			<path fill="none" stroke="#000000" stroke-width="4" stroke-linecap="round" stroke-linejoin="round" stroke-miterlimit="10" d="
				M455.676,742.389c0.551,1.171,0.573,2.526,0.573,3.969c0,4.452-0.201,8.057-15.544,8.057c-15.348,0-15.545-3.604-15.545-8.057
				c0-4.346,0.188-7.885,14.475-8.05"/>
			
				<line fill="none" stroke="#000000" stroke-width="4" stroke-linecap="round" stroke-linejoin="round" stroke-miterlimit="10" x1="405.978" y1="746.357" x2="425.161" y2="746.357"/>
		</g>
		<g>
			<path fill="none" stroke="#000000" stroke-width="4" stroke-linecap="round" stroke-linejoin="round" stroke-miterlimit="10" d="
				M571.419,760.28c0,4.452-0.202,8.057-15.544,8.057c-15.348,0-15.545-3.605-15.545-8.057c0-4.452,0.197-8.057,15.545-8.057
				C571.217,752.224,571.419,755.828,571.419,760.28z"/>
			<path fill="none" stroke="#000000" stroke-width="4" stroke-linecap="round" stroke-linejoin="round" stroke-miterlimit="10" d="
				M616.956,760.28c0,4.452-0.201,8.057-15.544,8.057c-15.348,0-15.545-3.605-15.545-8.057c0-4.452,0.197-8.057,15.545-8.057
				C616.754,752.224,616.956,755.828,616.956,760.28z"/>
			
				<line fill="none" stroke="#000000" stroke-width="4" stroke-linecap="round" stroke-linejoin="round" stroke-miterlimit="10" x1="571.419" y1="760.28" x2="585.866" y2="760.28"/>
		</g>
		<g>
			<g>
				
					<path fill="none" stroke="#000000" stroke-width="4" stroke-linecap="round" stroke-linejoin="round" stroke-miterlimit="10" d="
					M507.947,845.218c-13.012-17.567-36.938-22.483-66.957-23.778"/>
				
					<path fill="none" stroke="#000000" stroke-width="4" stroke-linecap="round" stroke-linejoin="round" stroke-miterlimit="10" d="
					M390.502,821.425c-43.137,1.814-73.768,11.013-77.667,54.264c-1.042,11.562-1.57,23.242-1.73,34.768h170.093"/>
			</g>
			<path fill="none" stroke="#000000" stroke-width="4" stroke-linecap="round" stroke-linejoin="round" stroke-miterlimit="10" d="
				M466.968,738.416c5.527,0,10.011,3.519,10.011,12.065c0,10.87-6.684,17.892-12.066,18.787"/>
			<path fill="none" stroke="#000000" stroke-width="4" stroke-linecap="round" stroke-linejoin="round" stroke-miterlimit="10" d="
				M466.737,739.289c0.153,1.778,0.231,3.602,0.231,5.473c0,53.05-23.019,66.082-51.399,66.082
				c-28.379,0-51.398-13.032-51.398-66.082c0-2.184,0.106-4.308,0.316-6.364"/>
			<path fill="none" stroke="#000000" stroke-width="4" stroke-linecap="round" stroke-linejoin="round" stroke-miterlimit="10" d="
				M366.225,769.267c-5.38-0.895-12.065-7.917-12.065-18.787c0-8.546,4.483-12.065,10.012-12.065
				c22.863,0,20.444-35.191,36.84-28.397c29.151-15.676,21.963,45.56,65.957,29.189"/>
			<path fill="none" stroke="#000000" stroke-width="4" stroke-linecap="round" stroke-linejoin="round" stroke-miterlimit="10" d="
				M476.979,746.357c9.279-67.488-57.73-81.731-77.565-61.897c-28.353-12.779-53.112,21.164-45.254,61.897"/>
			<path fill="none" stroke="#000000" stroke-width="4" stroke-linecap="round" stroke-linejoin="round" stroke-miterlimit="10" d="
				M470.947,765.934c0,11.16-7.238,28.137-18.406,31.068"/>
			<path fill="none" stroke="#000000" stroke-width="4" stroke-linecap="round" stroke-linejoin="round" stroke-miterlimit="10" d="
				M360.134,765.934c0,11.16,7.236,28.137,18.405,31.068"/>
			
				<polyline fill="none" stroke="#000000" stroke-width="4" stroke-linecap="round" stroke-linejoin="round" stroke-miterlimit="10" points="
				392.476,806.81 390.499,821.427 415.569,839.129 440.992,821.438 439.004,806.661 			"/>
		</g>
		<g>
			<g>
				
					<path fill="none" stroke="#000000" stroke-width="4" stroke-linecap="round" stroke-linejoin="round" stroke-miterlimit="10" d="
					M557.784,823.807c-80.809,11.096-76.586,86.649-76.586,86.649h194.89c0,0,4.171-74.583-75.036-86.427"/>
			</g>
			<path fill="none" stroke="#000000" stroke-width="4" stroke-linecap="round" stroke-linejoin="round" stroke-miterlimit="10" d="
				M624.832,775.754c5.53,0,13.208-7.231,13.208-18.885c0-8.545-4.484-12.063-10.011-12.063h-0.771"/>
			<path fill="none" stroke="#000000" stroke-width="4" stroke-linecap="round" stroke-linejoin="round" stroke-miterlimit="10" d="
				M627.294,745.013c0.483,2.99,0.732,6.134,0.732,9.432c0,30.085-22.121,63.489-49.384,63.489
				c-27.261,0-49.381-33.404-49.381-63.489c0-3.374,0.264-6.589,0.769-9.64"/>
			<path fill="none" stroke="#000000" stroke-width="4" stroke-linecap="round" stroke-linejoin="round" stroke-miterlimit="10" d="
				M532.454,775.754c-5.526,0-13.206-7.231-13.206-18.885c0-8.545,4.484-12.063,10.011-12.063h0.77
				c9.168,0,40.19-5.142,40.19-24.803c6.374,27.083,35.826,24.733,57.01,24.733"/>
			<path fill="none" stroke="#000000" stroke-width="4" stroke-linecap="round" stroke-linejoin="round" stroke-miterlimit="10" d="
				M554.588,808.839c-17.579,4.305-24.452,12.29-24.452,12.29s-18.713-25.171-20.412-61.583
				c-3.561-76.248,52.694-83.319,68.917-69.419c16.227-13.9,72.483-6.829,68.924,69.419c-1.702,36.412-20.415,61.583-20.415,61.583
				s-6.873-7.984-24.451-12.29"/>
			<path fill="none" stroke="#000000" stroke-width="4" stroke-linecap="round" stroke-linejoin="round" stroke-miterlimit="10" d="
				M560.671,812.96l-2.887,10.849c0,0-0.35,19.404,21.634,19.404c21.984,0,21.634-19.182,21.634-19.182l-3.06-11.869"/>
		</g>
	</g>
	<g>
		<g>
			<g>
				<g>
					<g>
						<g>
							
								<path fill="none" stroke="#000000" stroke-width="4" stroke-linecap="round" stroke-linejoin="round" stroke-miterlimit="10" d="
								M932.501,812.304c-12.576-2.668-25.133,1.613-33.597,6.442"/>
							
								<line fill="none" stroke="#000000" stroke-width="4" stroke-linecap="round" stroke-linejoin="round" stroke-miterlimit="10" x1="932.099" y1="829.216" x2="913.23" y2="829.216"/>
							
								<path fill="none" stroke="#000000" stroke-width="4" stroke-linecap="round" stroke-linejoin="round" stroke-miterlimit="10" d="
								M820.523,767.029c-18.517,14.242-30.45,36.623-30.45,61.792c0,28.379,15.171,53.209,37.839,66.829
								c0,0-2.282,19.522-3.606,32.129c-3.839,36.38,83.29,26.634,83.29,26.634V927.79c0-7.248,5.874-13.125,13.129-13.125h12.028
								c7.253,0,13.13-5.877,13.13-13.126l-0.004-33.594l17.175-2.091l-17.175-37.032c0-43.03-34.877-77.907-77.9-77.907
								c-4.133,0-8.191,0.322-12.15,0.942"/>
						</g>
					</g>
					
						<line fill="none" stroke="#000000" stroke-width="4" stroke-linecap="round" stroke-linejoin="round" stroke-miterlimit="10" x1="934.666" y1="890.5" x2="945.883" y2="890.5"/>
				</g>
			</g>
		</g>
		<g>
			<path fill="none" stroke="#000000" stroke-width="4" stroke-linecap="round" stroke-linejoin="round" stroke-miterlimit="10" d="
				M892.717,676.928c0-12.66-10.263-22.923-22.924-22.923c-1.961,0-3.864,0.248-5.682,0.71c-2.017-10.6-11.326-18.615-22.514-18.615
				c-6.301,0-12.006,2.543-16.15,6.657c-3.932-6.968-11.399-11.676-19.972-11.676c-12.66,0-22.924,10.263-22.924,22.924
				c0,0.124,0.007,0.246,0.01,0.37c-1.326-0.239-2.69-0.37-4.085-0.37c-12.66,0-22.923,10.263-22.923,22.923
				c0,7.844,3.941,14.765,9.95,18.897c-2.804,3.803-4.464,8.502-4.464,13.589c0,12.66,10.264,22.923,22.924,22.923
				c6.521,0,12.403-2.728,16.577-7.1c3.564,8.032,11.604,13.637,20.957,13.637c8.961,0,16.716-5.145,20.486-12.639
				c3.819,2.849,8.557,4.536,13.688,4.536c12.661,0,22.924-10.263,22.924-22.923c0-3.222-0.668-6.287-1.867-9.068
				C885.999,695.841,892.717,687.17,892.717,676.928z"/>
			<g>
				
					<path fill="none" stroke="#000000" stroke-width="4" stroke-linecap="round" stroke-linejoin="round" stroke-miterlimit="10" d="
					M856.299,755.085c0-6.298-5.105-11.403-11.403-11.403c-4.572,0-8.506,2.699-10.323,6.585c-0.357-0.029-0.716-0.055-1.079-0.055
					c-7.404,0-13.407,6.002-13.407,13.406s6.003,13.406,13.407,13.406c6.47,0,11.867-4.583,13.127-10.681
					C852.098,765.511,856.299,760.795,856.299,755.085z"/>
				
					<circle fill="none" stroke="#000000" stroke-width="4" stroke-linecap="round" stroke-linejoin="round" stroke-miterlimit="10" cx="860.966" cy="781.692" r="7.017"/>
			</g>
		</g>
	</g>
	<g>
		<g>
			<path fill="none" stroke="#000000" stroke-width="4" stroke-linecap="round" stroke-linejoin="round" stroke-miterlimit="10" d="
				M1284.754,737.174c0.576-1.413-0.103-3.025-1.516-3.601l-8.493-3.461c-1.413-0.575-3.024,0.104-3.601,1.517l-4.06,9.815
				l13.609,5.545L1284.754,737.174z"/>
			
				<rect x="1240.127" y="739.398" transform="matrix(0.9261 0.3774 -0.3774 0.9261 395.9792 -411.9503)" fill="none" stroke="#000000" stroke-width="4" stroke-linecap="round" stroke-linejoin="round" stroke-miterlimit="10" width="18.335" height="130.347"/>
			
				<polygon fill="none" stroke="#000000" stroke-width="4" stroke-linecap="round" stroke-linejoin="round" stroke-miterlimit="10" points="
				1233.19,868.386 1216.211,861.467 1212.229,886.657 1218.431,889.183 			"/>
			<path fill="none" stroke="#000000" stroke-width="4" stroke-linecap="round" stroke-linejoin="round" stroke-miterlimit="10" d="
				M1245.632,783.246c-2.29-0.933-3.39-3.546-2.455-5.836l12.844-31.52c0.933-2.291,3.546-3.39,5.836-2.457l2.104,0.857"/>
		</g>
		<g>
			<g>
				<path fill="none" stroke="#000000" stroke-width="4" stroke-linejoin="round" stroke-miterlimit="10" d="M1136.991,874.711
					v12.38c0,6.809,5.574,12.382,12.384,12.382h130.833c6.81,0,12.384-5.574,12.384-12.382V699.589
					c0-6.81-5.574-12.381-12.384-12.381h-130.833c-6.81,0-12.384,5.571-12.384,12.381v12.387"/>
				
					<line fill="none" stroke="#000000" stroke-width="4" stroke-linejoin="round" stroke-miterlimit="10" x1="1136.991" y1="844.807" x2="1136.991" y2="861.469"/>
				
					<line fill="none" stroke="#000000" stroke-width="4" stroke-linejoin="round" stroke-miterlimit="10" x1="1136.991" y1="814.91" x2="1136.991" y2="831.565"/>
				
					<line fill="none" stroke="#000000" stroke-width="4" stroke-linejoin="round" stroke-miterlimit="10" x1="1136.991" y1="785.009" x2="1136.991" y2="801.667"/>
				
					<line fill="none" stroke="#000000" stroke-width="4" stroke-linejoin="round" stroke-miterlimit="10" x1="1136.991" y1="755.113" x2="1136.991" y2="771.771"/>
				
					<line fill="none" stroke="#000000" stroke-width="4" stroke-linejoin="round" stroke-miterlimit="10" x1="1136.991" y1="725.214" x2="1136.991" y2="741.869"/>
				
					<path fill="none" stroke="#000000" stroke-width="4" stroke-linecap="round" stroke-linejoin="round" stroke-miterlimit="10" d="
					M1127.696,725.214c-3.656,0-6.62-2.963-6.62-6.62c0-3.658,2.964-6.621,6.62-6.621h18.59c3.657,0,6.621,2.963,6.621,6.621
					c0,3.657-2.964,6.62-6.621,6.62H1127.696z"/>
				
					<path fill="none" stroke="#000000" stroke-width="4" stroke-linecap="round" stroke-linejoin="round" stroke-miterlimit="10" d="
					M1127.696,755.113c-3.656,0-6.62-2.964-6.62-6.621c0-3.657,2.964-6.621,6.62-6.621h18.59c3.657,0,6.621,2.964,6.621,6.621
					c0,3.657-2.964,6.621-6.621,6.621H1127.696z"/>
				
					<path fill="none" stroke="#000000" stroke-width="4" stroke-linecap="round" stroke-linejoin="round" stroke-miterlimit="10" d="
					M1127.696,785.012c-3.656,0-6.62-2.963-6.62-6.621c0-3.657,2.964-6.621,6.62-6.621h18.59c3.657,0,6.621,2.964,6.621,6.621
					c0,3.657-2.964,6.621-6.621,6.621H1127.696z"/>
				
					<path fill="none" stroke="#000000" stroke-width="4" stroke-linecap="round" stroke-linejoin="round" stroke-miterlimit="10" d="
					M1127.696,814.91c-3.656,0-6.62-2.963-6.62-6.621c0-3.657,2.964-6.62,6.62-6.62h18.59c3.657,0,6.621,2.963,6.621,6.62
					c0,3.657-2.964,6.621-6.621,6.621H1127.696z"/>
				
					<path fill="none" stroke="#000000" stroke-width="4" stroke-linecap="round" stroke-linejoin="round" stroke-miterlimit="10" d="
					M1127.696,844.809c-3.656,0-6.62-2.963-6.62-6.618c0-3.659,2.964-6.623,6.62-6.623h18.59c3.657,0,6.621,2.964,6.621,6.623
					c0,3.655-2.964,6.618-6.621,6.618H1127.696z"/>
				
					<path fill="none" stroke="#000000" stroke-width="4" stroke-linecap="round" stroke-linejoin="round" stroke-miterlimit="10" d="
					M1127.696,874.708c-3.656,0-6.62-2.963-6.62-6.62s2.964-6.621,6.62-6.621h18.59c3.657,0,6.621,2.964,6.621,6.621
					s-2.964,6.62-6.621,6.62H1127.696z"/>
			</g>
		</g>
	</g>
</g>
</svg>
